# xmcd CD database file
#
# Track frame offsets:
#	150
#	25923
#	52049
#	74347
#	101308
#	127741
#	153593
#	179386
#	204168
#	229590
#	247672
#	274568
#
# Disc length: 3898 seconds
#
# Revision: 2
# Processed by: cddbd v1.5.2PL0 Copyright (c) Steve Scherf et al.
# Submitted via: CDex 1.70beta2
#
DISCID=910f380c
DTITLE=Funky Phonics - UK Beats
DYEAR=2001
DGENRE=New Age
TTITLE0=Scot Bond Presents Q: Dos - I'm Not Going Home
TTITLE1=Sunday Club - Healing Dreams
TTITLE2=Da Buzz - Let Me Love You
TTITLE3=GD - Choral Reef
TTITLE4=Marz - Flying
TTITLE5=Fifty Fifty - Crazy Thing
TTITLE6=JDS - Destiny Calls
TTITLE7=Alex D'elia Vs Ebop Allstars - Isn't Life Wonderful
TTITLE8=En-Motion - Truth
TTITLE9=Full Intention - You Are Somebody
TTITLE10=Misstress Barbara - My Passion For You
TTITLE11=Carol Jiani - The Queen
EXTD=YEAR: 2001
EXTT0=
EXTT1=
EXTT2=
EXTT3=
EXTT4=
EXTT5=
EXTT6=
EXTT7=
EXTT8=
EXTT9=
EXTT10=
EXTT11=
PLAYORDER=
